inDegrees=no
num_controls=7
num_derivatives=13
num_iterations=37
num_multipliers=7
num_parameters=0
num_slacks=7
num_states=26
objective=0.466937
objective_accelerations=0.064626
objective_balance=0.000724
objective_effort=0.017504
objective_height=0.375334
objective_ligament=0.008749
solver_duration=535.243314
status=Solve_Succeeded
success=true
DataType=double
version=3
OpenSimVersion=4.5
endheader
time	/jointset/ground_pelvis/pelvis_tilt/value	/jointset/ground_pelvis/pelvis_tx/value	/jointset/ground_pelvis/pelvis_ty/value	/jointset/hip_l/hip_flexion_l/value	/jointset/hip_l/hip_adduction_l/value	/jointset/hip_l/hip_rotation_l/value	/jointset/back/lumbar_extension/value	/jointset/patellofemoral_l/patellar_flexion_l/value	/jointset/knee_l/knee_flexion_l/value	/jointset/knee_l/knee_adduction_l/value	/jointset/knee_l/knee_rotation_l/value	/jointset/ankle_l/ankle_angle_l/value	/jointset/subtalar_l/subtalar_angle_l/value	/jointset/ground_pelvis/pelvis_tilt/speed	/jointset/ground_pelvis/pelvis_tx/speed	/jointset/ground_pelvis/pelvis_ty/speed	/jointset/hip_l/hip_flexion_l/speed	/jointset/hip_l/hip_adduction_l/speed	/jointset/hip_l/hip_rotation_l/speed	/jointset/back/lumbar_extension/speed	/jointset/patellofemoral_l/patellar_flexion_l/speed	/jointset/knee_l/knee_flexion_l/speed	/jointset/knee_l/knee_adduction_l/speed	/jointset/knee_l/knee_rotation_l/speed	/jointset/ankle_l/ankle_angle_l/speed	/jointset/subtalar_l/subtalar_angle_l/speed	/forceset/tau_hip_flexion_l	/forceset/tau_hip_adduction_l	/forceset/tau_hip_rotation_l	/forceset/tau_knee_flexion_l	/forceset/tau_ankle_angle_l	/forceset/tau_subtalar_angle_l	/forceset/tau_lumbar_extension	lambda_cid13_p0	lambda_cid13_p1	lambda_cid13_p2	lambda_cid13_p3	lambda_cid13_p4	lambda_cid13_p5	lambda_cid14_p0	/jointset/ground_pelvis/pelvis_tilt/accel	/jointset/ground_pelvis/pelvis_tx/accel	/jointset/ground_pelvis/pelvis_ty/accel	/jointset/hip_l/hip_flexion_l/accel	/jointset/hip_l/hip_adduction_l/accel	/jointset/hip_l/hip_rotation_l/accel	/jointset/back/lumbar_extension/accel	/jointset/patellofemoral_l/patellar_flexion_l/accel	/jointset/knee_l/knee_flexion_l/accel	/jointset/knee_l/knee_adduction_l/accel	/jointset/knee_l/knee_rotation_l/accel	/jointset/ankle_l/ankle_angle_l/accel	/jointset/subtalar_l/subtalar_angle_l/accel	gamma_cid13_p0	gamma_cid13_p1	gamma_cid13_p2	gamma_cid13_p3	gamma_cid13_p4	gamma_cid13_p5	gamma_cid14_p0
0	0.05755396565420869	0.1032123836699874	0.905501729536253	0.1266922784136757	-0.3468988533224321	-0.2335241381084133	-0.2144969558742783	0.2051545070142255	0.2051545070141877	-0.1271726726771071	-0.1573890598374293	0.09024313228550125	0.104306517130838	0	0	0	0	0	0	0	0	0	0	0	0	0	0.1197492186141623	-0.01781422056236736	-0.007408639388369942	-0.2458579985728425	0.1879124230948511	-0.09658485952202979	-0.05245634080194306	28.06694196937622	39.59758264534195	-9.523904984498138	-14.01984486046582	-439.1489958642774	-28.13658751378973	-25.80280207355217	-3.954497944265663	-1.330119803729438	-0.9324066184003451	12.38503734207457	-0.3064329741555463	3.046167821345658	-3.675541997577029	10.64163189452202	10.64163189452258	2.102203827735328	-0.8355960993193549	3.084678031615005	0.6197659000091603	-2.63831177706342e-09	4.555769779823733e-07	-1.190523656230176e-09	3.15381532630572e-08	2.991749956356001e-08	8.500530775872178e-08	4.892997198943668e-08
0.01	0.05736545868197319	0.1031477808590942	0.9054565349166185	0.127292790222765	-0.3469123387168078	-0.2333698775272222	-0.2146851232265592	0.2056752419703334	0.2056752419700869	-0.1270670555117577	-0.1574240501759174	0.09039590452646004	0.1043390168350711	-0.03747478374876013	-0.01275871822523711	-0.009006024927203106	0.1194193612516019	-0.002636924849101913	0.03054966753687647	-0.03734829181928969	0.1037688651071448	0.103768865107147	0.02115298482276199	-0.007104933551784311	0.03060936177981218	0.006588188204203111	0.1183208511717218	-0.02600191391415486	-0.007298638566473583	-0.2463281367616934	0.1877907905446551	-0.0889655507883083	-0.05088636959477945	28.53768834166247	36.18313281803844	-8.953322036952306	-15.51383416459384	-439.7271022509148	-35.27943032598311	-25.8032940493259	-3.609980354343416	-1.224464933250833	-0.8797595963869074	11.61793192691187	-0.2333750748233445	3.01401552727314	-3.721695978210545	10.18778511684051	10.18778511684025	2.126358708178035	-0.6639839385251126	3.057316656798001	0.6915108672301022	-1.024367616593346e-08	6.363023846319188e-07	-1.87256266840645e-07	6.720723956162143e-08	-7.737301828326306e-08	3.059645895968352e-07	8.694750507711361e-08
0.02	0.05680900151938833	0.10296044744568	0.9053222682144136	0.1290670049265961	-0.3469504039265903	-0.2329191904092794	-0.2152382181378223	0.2072223198370733	0.2072223198370703	-0.1267490059188708	-0.1575332982410825	0.09085642066630517	0.1044400315386618	-0.0735900380640704	-0.02454612050417303	-0.01781441651401301	0.2347405789114826	-0.004915963079734269	0.0592853073703583	-0.07298551180272378	0.2052685821355121	0.2052685821355203	0.04248648559083892	-0.01485154532026878	0.06154877978497175	0.0137029998725785	0.1168924837324402	-0.03418960726573903	-0.007188637743888635	-0.2467982749487813	0.1876691579951531	-0.08134624205414906	-0.04931639838566199	29.05698835423893	32.77403051574082	-8.39941170019466	-17.04070794170221	-439.4155355056147	-42.21692279800192	-25.80467033300077	-3.68259205757505	-1.135856614469907	-0.8928799503216873	11.56540862373062	-0.2348556504615985	2.683362280666835	-3.33332763040561	10.18780227876672	10.18780227876801	2.138307016798402	-0.9639317426595133	3.150689276683712	0.7250905928433569	-1.784904055480349e-08	8.170277912814643e-07	-3.733220100250598e-07	1.028763258601857e-07	-1.846635361300861e-07	5.269238714349485e-07	1.249650381647906e-07
0.03	0.05589749676429794	0.1026586650142505	0.9051005999742601	0.1319746111828791	-0.3470110456120105	-0.2321885252138906	-0.2161397140124423	0.2097700509791192	0.2097700509791805	-0.1262210922681036	-0.1577213894264241	0.09162412977478168	0.1046118688193311	-0.1084944836349753	-0.03578973365838353	-0.02650728954026615	0.3460718321275963	-0.007309404357696709	0.0868684874403309	-0.1071491781272099	0.3035412578024666	0.3035412578024849	0.06266368767736361	-0.02252672115847247	0.09165029074568778	0.02045060973407507	0.1128968694738446	-0.02959937162824712	-0.006527342296240446	-0.2417045988640156	0.180826292136172	-0.08259758327408362	-0.04637247927706775	26.7714925633361	33.50695106496161	-8.275576779549132	-15.315269750721	-439.3191206597953	-39.85493291819961	-25.80670274051527	-3.361901593070461	-1.115498129937731	-0.8557370484745838	10.81065827936579	-0.2561958718466821	2.798992738333142	-3.433213383554076	9.536516791918059	9.536516791918796	1.892636699556852	-0.633395603442897	2.888487930450699	0.6174360419828891	-3.894734758830057e-08	7.715607932836231e-07	-1.966971228795151e-07	1.093935690243814e-07	-3.812327066435054e-07	3.253028929653256e-07	1.101824872792737e-07
